<svg id="Capa_1" enable-background="new 0 0 512 512" height="512" viewBox="0 0 512 512" width="512" xmlns="http://www.w3.org/2000/svg" xmlns:xlink="http://www.w3.org/1999/xlink"><linearGradient id="SVGID_1_" gradientUnits="userSpaceOnUse" x1="256" x2="256" y1="512" y2="0"><stop offset="0" stop-color="#addcff"/><stop offset=".5028" stop-color="#eaf6ff"/><stop offset="1" stop-color="#eaf6ff"/></linearGradient><linearGradient id="SVGID_2_" gradientUnits="userSpaceOnUse" x1="256" x2="256" y1="407" y2="105"><stop offset="0" stop-color="#00c0ff"/><stop offset="1" stop-color="#5558ff"/></linearGradient><g><g><circle cx="256" cy="256" fill="url(#SVGID_1_)" r="256"/></g><g><g><path d="m327.059 105h-26.647v62.177c0 3.079-1.596 5.933-4.216 7.555-2.564 1.594-5.829 1.786-8.639.39l-13.792-6.896-13.792 6.896c-2.758 1.353-6.02 1.232-8.639-.39s-4.216-4.476-4.216-7.555v-62.177h-133.236c-4.91 0-8.882 3.973-8.882 8.882v284.235c0 4.91 3.973 8.882 8.882 8.882h213.177c4.909 0 8.882-3.973 8.882-8.882v-284.235c0-4.909-3.973-8.882-8.882-8.882zm-124.353 35.529h17.765c4.909 0 8.882 3.973 8.882 8.882 0 4.91-3.973 8.883-8.882 8.883h-17.765c-4.909 0-8.882-3.973-8.882-8.883-.001-4.909 3.972-8.882 8.882-8.882zm-53.294 0h17.765c4.909 0 8.882 3.973 8.882 8.882 0 4.91-3.973 8.883-8.882 8.883h-17.765c-4.909 0-8.882-3.973-8.882-8.883-.001-4.909 3.972-8.882 8.882-8.882zm0 35.53h71.059c4.909 0 8.882 3.973 8.882 8.882s-3.973 8.882-8.882 8.882h-71.059c-4.909 0-8.882-3.973-8.882-8.882s3.972-8.882 8.882-8.882zm8.882 133.235v-31.852l-2.602 2.602c-3.47 3.469-9.091 3.469-12.56 0-3.469-3.47-3.469-9.091 0-12.56l53.294-53.294c3.47-3.47 9.091-3.47 12.56 0l53.294 53.294c3.47 3.47 3.47 9.091 0 12.56-3.469 3.469-9.09 3.47-12.56 0l-2.602-2.602v31.852c0 4.909-3.973 8.882-8.882 8.882h-71.059c-4.91.001-8.883-3.972-8.883-8.882zm133.235 62.177h-35.529c-2.359 0-4.615-.937-6.28-2.602l-11.485-11.485-11.485 11.485c-1.735 1.735-4.008 2.602-6.28 2.602-2.273 0-4.545-.868-6.28-2.602l-11.485-11.485-11.485 11.485c-3.47 3.469-9.09 3.469-12.56 0-3.47-3.47-3.47-9.091 0-12.56l17.765-17.765c3.47-3.47 9.091-3.47 12.56 0l11.485 11.485 11.484-11.485c3.47-3.47 9.091-3.47 12.56 0l15.162 15.162h31.852c4.91 0 8.882 3.973 8.882 8.882.002 4.91-3.971 8.883-8.881 8.883zm-115.47-111.793v40.734h17.765v-8.882c0-4.909 3.973-8.882 8.882-8.882 4.91 0 8.883 3.973 8.883 8.882v8.882h17.765v-40.734l-26.647-26.647zm101.679-109.329 4.909 2.455v-47.804h-17.765v47.803l4.91-2.455c2.498-1.248 5.447-1.248 7.946.001zm75.968 132.298h53.294v-88.823h-53.294zm26.647-159.882c-14.694 0-26.647 11.953-26.647 26.647v26.647h53.294v-26.647c0-14.694-11.953-26.647-26.647-26.647zm-26.647 196.938c0 16.924 6.575 33.348 17.765 45.983v14.667c0 4.909 3.973 8.882 8.882 8.882s8.882-3.973 8.882-8.882v-14.667c11.19-12.636 17.765-29.059 17.765-45.983v-19.292h-53.294z" fill="url(#SVGID_2_)"/></g></g></g></svg>