<svg id="Capa_1" enable-background="new 0 0 512 512" height="512" viewBox="0 0 512 512" width="512" xmlns="http://www.w3.org/2000/svg" xmlns:xlink="http://www.w3.org/1999/xlink"><linearGradient id="SVGID_1_" gradientUnits="userSpaceOnUse" x1="256" x2="256" y1="512" y2="0"><stop offset="0" stop-color="#c3ffe8"/><stop offset=".9973" stop-color="#f0fff4"/></linearGradient><linearGradient id="SVGID_2_" gradientUnits="userSpaceOnUse" x1="256" x2="256" y1="407" y2="105"><stop offset="0" stop-color="#9cffac"/><stop offset="1" stop-color="#00b59c"/></linearGradient><g><g><circle cx="256" cy="256" fill="url(#SVGID_1_)" r="256"/></g><g><g><path d="m229.4 241.913v40.734h17.733v-8.882c0-4.91 3.966-8.882 8.867-8.882s8.867 3.973 8.867 8.882v8.882h17.733v-40.734l-26.6-26.647zm66.673-83.619h-80.146c-9.585 14.286-23.63 25.216-39.727 30.958v65.481c0 47.56 33.458 88.633 79.8 98.313 46.342-9.68 79.8-50.753 79.8-98.313v-65.481c-16.097-5.742-30.141-16.671-39.727-30.958zm19.396 103.986c-3.463 3.469-9.074 3.47-12.538 0l-2.598-2.602v31.852c0 4.91-3.966 8.882-8.867 8.882h-70.933c-4.901 0-8.867-3.973-8.867-8.882v-31.852l-2.598 2.602c-3.464 3.47-9.075 3.47-12.538 0-3.464-3.469-3.464-9.091 0-12.56 1.9-1.904 50.418-50.507 53.2-53.294 3.464-3.469 9.074-3.469 12.538 0 2.001 2.005 51.394 51.485 53.295 53.389-.025-.025-.052-.052-.095-.095 3.465 3.469 3.465 9.091.001 12.56zm64.664-121.751h-17.733c-14.668 0-26.6-11.953-26.6-26.647 0-4.91-3.966-8.882-8.867-8.882h-141.866c-4.901 0-8.867 3.973-8.867 8.882 0 14.694-11.932 26.647-26.6 26.647h-17.733c-4.901 0-8.867 3.973-8.867 8.882v105.322c0 76.012 56.638 141.432 131.744 152.18.416.061.84.087 1.256.087s.84-.026 1.256-.087c75.106-10.747 131.744-76.168 131.744-152.179v-105.322c0-4.91-3.966-8.883-8.867-8.883zm-26.6 114.205c0 56.634-40.316 105.46-95.871 116.095-.545.104-1.108.156-1.662.156s-1.117-.052-1.662-.156c-55.555-10.635-95.871-59.461-95.871-116.095v-72.039c0-4.051 2.736-7.59 6.65-8.596 15.958-4.137 29.899-14.755 38.229-29.145 1.593-2.741 4.511-4.424 7.672-4.424h89.965c3.161 0 6.079 1.683 7.672 4.424 8.33 14.391 22.271 25.008 38.229 29.145 3.914 1.006 6.65 4.545 6.65 8.596v72.039z" fill="url(#SVGID_2_)"/></g></g></g></svg>