<svg id="Capa_1" enable-background="new 0 0 512 512" height="512" viewBox="0 0 512 512" width="512" xmlns="http://www.w3.org/2000/svg" xmlns:xlink="http://www.w3.org/1999/xlink"><linearGradient id="SVGID_1_" gradientUnits="userSpaceOnUse" x1="256" x2="256" y1="512" y2="0"><stop offset="0" stop-color="#ffc2cc"/><stop offset="1" stop-color="#fff2f4"/></linearGradient><linearGradient id="SVGID_2_" gradientUnits="userSpaceOnUse" x1="256" x2="256" y1="407" y2="105"><stop offset="0" stop-color="#ffa68d"/><stop offset="1" stop-color="#fd3a84"/></linearGradient><g><g><circle cx="256" cy="256" fill="url(#SVGID_1_)" r="256"/></g><g><g><path d="m398.118 174.347h-44.443c-1.922 0-3.793-.628-5.33-1.79l-87.013-65.766c-3.16-2.388-7.503-2.388-10.662 0l-86.988 65.765c-1.538 1.162-3.409 1.791-5.331 1.791h-44.468c-4.905 0-8.882 4.005-8.882 8.948v17.896c0 4.942 3.977 8.948 8.882 8.948h56.199c1.92 0 3.79-.628 5.327-1.788l75.265-56.827c3.157-2.383 7.497-2.383 10.654 0l75.265 56.827c1.537 1.16 3.407 1.788 5.327 1.788h56.199c4.905 0 8.882-4.007 8.882-8.948v-17.896c-.001-4.943-3.978-8.948-8.883-8.948zm-8.883-17.896v-26.845c0-4.943-3.977-8.948-8.882-8.948h-17.765c-4.905 0-8.882 4.005-8.882 8.948v24.628l2.932 2.216h32.597zm-88.823 134.222c0-14.174-6.801-27.264-17.765-35.557v35.557c0 4.946-3.973 8.948-8.882 8.948h-35.529c-4.91 0-8.882-4.002-8.882-8.948v-35.557c-10.964 8.293-17.765 21.383-17.765 35.557 0 18.753 11.901 35.627 29.622 41.971 3.539 1.267 5.907 4.649 5.907 8.433v65.923h17.765v-65.923c0-3.784 2.368-7.166 5.907-8.433 17.721-6.344 29.622-23.218 29.622-41.971zm97.706 98.431h-8.882v-161.068h-47.318c-5.734 0-11.415-1.914-15.995-5.383l-69.923-52.789-69.94 52.807c-4.563 3.452-10.244 5.365-15.978 5.365h-47.318v161.067h-8.882c-4.91 0-8.882 4.002-8.882 8.948s3.973 8.948 8.882 8.948h115.471v-59.955c-21.486-10.303-35.529-32.21-35.529-56.372 0-26.312 16.654-49.949 41.437-58.836 2.724-.953 5.734-.542 8.093 1.119 2.359 1.678 3.765 4.404 3.765 7.314v41.455h17.765v-41.454c0-2.91 1.405-5.636 3.765-7.314 2.368-1.669 5.421-2.071 8.093-1.119 24.782 8.887 41.437 32.525 41.437 58.836 0 24.162-14.043 46.069-35.529 56.372v59.955h115.471c4.91 0 8.882-4.002 8.882-8.948-.003-4.946-3.976-8.948-8.885-8.948z" fill="url(#SVGID_2_)"/></g></g></g></svg>