<svg id="Layer_1" data-name="Layer 1" xmlns="http://www.w3.org/2000/svg" xmlns:xlink="http://www.w3.org/1999/xlink" viewBox="0 0 128 128"><defs><linearGradient id="linear-gradient" x1="98.763" y1="98.763" x2="29.237" y2="29.237" gradientUnits="userSpaceOnUse"><stop offset="0" stop-color="#f92333"/><stop offset="1" stop-color="#fcc938"/></linearGradient></defs><title>SMART KEY</title><path d="M98.763,76.294,88.17,65.7a15.874,15.874,0,0,0-21.159-1.165L63.464,60.99A15.875,15.875,0,0,0,62.3,39.83L51.707,29.237a15.888,15.888,0,0,0-22.47,22.469L39.83,62.3a15.874,15.874,0,0,0,21.159,1.165l3.547,3.546A15.875,15.875,0,0,0,65.7,88.17L76.293,98.763a15.888,15.888,0,0,0,22.47-22.469Zm-47.7-12.841a12.307,12.307,0,0,1-8.76-3.629L31.711,49.231a12.389,12.389,0,0,1,17.521-17.52L59.825,42.3A12.4,12.4,0,0,1,60.964,58.49l-4.4-4.4a1.75,1.75,0,0,0-2.475,2.475l4.4,4.4A12.285,12.285,0,0,1,51.064,63.453ZM96.288,96.288a12.39,12.39,0,0,1-17.52,0L68.175,85.7A12.4,12.4,0,0,1,67.036,69.51l4.4,4.4a1.75,1.75,0,0,0,2.475-2.475l-4.4-4.4A12.36,12.36,0,0,1,85.7,68.176L96.289,78.769A12.4,12.4,0,0,1,96.288,96.288Z" style="fill:url(#linear-gradient)"/></svg>