<svg id="Capa_1" enable-background="new 0 0 512 512" height="512" viewBox="0 0 512 512" width="512" xmlns="http://www.w3.org/2000/svg" xmlns:xlink="http://www.w3.org/1999/xlink"><linearGradient id="SVGID_1_" gradientUnits="userSpaceOnUse" x1="256" x2="256" y1="512" y2="0"><stop offset="0" stop-color="#ffe59a"/><stop offset="1" stop-color="#ffffd5"/></linearGradient><linearGradient id="SVGID_2_" gradientUnits="userSpaceOnUse" x1="256" x2="256" y1="398" y2="114"><stop offset="0" stop-color="#ffde00"/><stop offset="1" stop-color="#fd5900"/></linearGradient><g><g><circle cx="256" cy="256" fill="url(#SVGID_1_)" r="256"/></g><g><g><path d="m140.529 238.25h71.059v-26.625c0-5.062-3.817-8.875-8.883-8.875h-43.319l-2.099-5.911c-2.515-7.081-9.247-11.839-16.759-11.839h-8.882c-4.905 0-8.882 3.974-8.882 8.875v26.625c.001 9.785 7.972 17.75 17.765 17.75zm257.589-124.25h-142.118c-4.905 0-8.882 3.974-8.882 8.875v221.875c0-19.606-15.907-35.5-35.529-35.5h-8.883v35.5c0 14.682-11.953 26.625-26.647 26.625s-26.647-11.943-26.647-26.625v-35.5h-8.882c-19.622 0-35.529 15.894-35.529 35.5v44.375c0 4.901 3.977 8.875 8.882 8.875h284.235c4.905 0 8.882-3.974 8.882-8.875v-266.25c0-4.901-3.977-8.875-8.882-8.875zm-71.059 248.5h-35.53c-4.909 0-8.882-3.969-8.882-8.875s3.973-8.875 8.882-8.875h35.53c4.909 0 8.882 3.969 8.882 8.875s-3.973 8.875-8.882 8.875zm35.529-35.5h-71.059c-4.909 0-8.882-3.969-8.882-8.875s3.973-8.875 8.882-8.875h71.059c4.909 0 8.882 3.969 8.882 8.875s-3.972 8.875-8.882 8.875zm0-35.5h-71.059c-4.909 0-8.882-3.969-8.882-8.875s3.973-8.875 8.882-8.875h71.059c4.909 0 8.882 3.969 8.882 8.875s-3.972 8.875-8.882 8.875zm24.045-73.6c-3.469 3.467-9.091 3.467-12.56 0l-2.602-2.6v31.825c0 4.901-3.977 8.875-8.882 8.875h-71.059c-4.905 0-8.882-3.974-8.882-8.875v-31.825l-2.602 2.6c-3.47 3.467-9.091 3.467-12.56 0s-3.47-9.083 0-12.55c1.905-1.903 50.571-50.529 53.295-53.251 3.469-3.465 9.091-3.465 12.559.001 2.108 2.107 56.744 56.697 53.294 53.25 3.469 3.467 3.469 9.083-.001 12.55zm-86.221-20.35v40.7h17.765v-8.875c0-4.906 3.973-8.875 8.882-8.875s8.882 3.969 8.882 8.875v8.875h17.765v-40.7l-26.647-26.625zm-133.235 147.2c0 4.897 3.981 8.875 8.882 8.875s8.882-3.978 8.882-8.875v-35.5h-8.882-8.882zm44.411-71v-17.75h-71.059v17.75c0 9.568 3.661 18.4 10.479 25.03 6.575 6.752 15.475 10.47 25.051 10.47 19.595 0 35.529-15.921 35.529-35.5z" fill="url(#SVGID_2_)"/></g></g></g></svg>