<svg id="Carribbean_Sunset" data-name="Carribbean Sunset" xmlns="http://www.w3.org/2000/svg" xmlns:xlink="http://www.w3.org/1999/xlink" width="128" height="128" viewBox="0 0 211.91691 215.70114"><defs><style>.cls-1,.cls-6{opacity:0.5;}.cls-2{fill:url(#linear-gradient);}.cls-3{fill:#fff;}.cls-4{fill:url(#linear-gradient-2);}.cls-5{fill:url(#linear-gradient-3);}.cls-6{isolation:isolate;fill:url(#linear-gradient-4);}.cls-7{fill:url(#linear-gradient-5);}.cls-8{fill:url(#linear-gradient-6);}.cls-9{fill:url(#linear-gradient-7);}.cls-10{fill:url(#linear-gradient-8);}.cls-11{fill:url(#linear-gradient-9);}.cls-12{fill:url(#linear-gradient-10);}.cls-13{fill:url(#linear-gradient-11);}.cls-14{fill:url(#linear-gradient-12);}.cls-15{fill:url(#linear-gradient-14);}.cls-16{fill:url(#linear-gradient-15);}.cls-17{fill:url(#linear-gradient-16);}.cls-18{fill:url(#linear-gradient-17);}</style><linearGradient id="linear-gradient" x1="16.61916" y1="-836.66335" x2="212.61916" y2="-836.66335" gradientTransform="matrix(1, 0, 0, -1, 0, -724.37955)" gradientUnits="userSpaceOnUse"><stop offset="0" stop-color="#e30058"/><stop offset="1" stop-color="#ffc100"/></linearGradient><linearGradient id="linear-gradient-2" x1="143.33718" y1="-738.01076" x2="189.67158" y2="-738.01076" xlink:href="#linear-gradient"/><linearGradient id="linear-gradient-3" x1="16.61916" y1="-852.62276" x2="212.61916" y2="-852.62276" xlink:href="#linear-gradient"/><linearGradient id="linear-gradient-4" x1="16.61916" y1="-739.46468" x2="212.61916" y2="-739.46468" xlink:href="#linear-gradient"/><linearGradient id="linear-gradient-5" x1="16.61916" y1="-879.38101" x2="212.61916" y2="-879.38101" xlink:href="#linear-gradient"/><linearGradient id="linear-gradient-6" x1="16.61916" y1="-894.17281" x2="212.61916" y2="-894.17281" xlink:href="#linear-gradient"/><linearGradient id="linear-gradient-7" x1="16.61916" y1="-878.75581" x2="212.61916" y2="-878.75581" xlink:href="#linear-gradient"/><linearGradient id="linear-gradient-8" x1="16.61916" y1="-858.88999" x2="212.61916" y2="-858.88999" xlink:href="#linear-gradient"/><linearGradient id="linear-gradient-9" x1="16.61916" y1="-898.62094" x2="212.61916" y2="-898.62094" xlink:href="#linear-gradient"/><linearGradient id="linear-gradient-10" x1="16.61916" y1="-809.92433" x2="212.61916" y2="-809.92433" xlink:href="#linear-gradient"/><linearGradient id="linear-gradient-11" x1="16.61916" y1="-800.3398" x2="212.61916" y2="-800.3398" xlink:href="#linear-gradient"/><linearGradient id="linear-gradient-12" x1="16.61916" y1="-819.7148" x2="212.61916" y2="-819.7148" xlink:href="#linear-gradient"/><linearGradient id="linear-gradient-14" x1="16.61916" y1="-794.94287" x2="212.61916" y2="-794.94287" xlink:href="#linear-gradient"/><linearGradient id="linear-gradient-15" x1="16.61916" y1="-850.03029" x2="212.61916" y2="-850.03029" xlink:href="#linear-gradient"/><linearGradient id="linear-gradient-16" x1="16.61916" y1="-905.39626" x2="212.61916" y2="-905.39626" xlink:href="#linear-gradient"/><linearGradient id="linear-gradient-17" x1="16.61916" y1="-907.78572" x2="212.61916" y2="-907.78572" xlink:href="#linear-gradient"/></defs><g class="cls-1"><path class="cls-2" d="M56.25557,170.05827c-18.737-3.913-29.515-19.07995-27.594-40.849,1.861-21.084,24.871-50.942,33.203-61.614,8.333-10.672,30.584-39.157,49.057-39.475,33.225-.56994,40.818,23.974,45.752,42.213,8.182,30.246,13.199,41.93506,20.735,53.03405,9.801,14.436,14.582,39.82105-2.211,60.72205-5.386,6.704-26.065,19.734-48.695,6.98706C103.87355,178.3322,82.38155,175.5142,56.25557,170.05827Z"/></g><path class="cls-3" d="M122.7546,154.37517a9.58681,9.58681,0,0,0-8.08-9.45v18.9A9.58522,9.58522,0,0,0,122.7546,154.37517Z"/><path class="cls-3" d="M34.42458,154.37517a11.76327,11.76327,0,0,0,11.75,11.75h16.25v-23.5h-16.25A11.7646,11.7646,0,0,0,34.42458,154.37517Z"/><path class="cls-3" d="M111.67458,122.63518l-9.521,4.011v31.146a1.5,1.5,0,0,1-3,0v-29.882l-33.729,14.21106v24.50806l46.25,19.486Zm-9.52,49.32409a1.5,1.5,0,0,1-3,0v-4.334a1.5,1.5,0,0,1,3,0Z"/><path class="cls-3" d="M52.42458,183.12517a5,5,0,0,0,10,0v-14h-10Z"/><path class="cls-3" d="M131.62355,105.37517v-8.188h-19.792a7.75927,7.75927,0,0,1-7.75-7.75v-28.813h-47.907a4.75556,4.75556,0,0,0-4.75,4.75v40a4.75556,4.75556,0,0,0,4.75,4.75h10.08a1.5031,1.5031,0,0,1,1.503,1.5v10.404l11.577-11.577a1.49565,1.49565,0,0,1,1.631-.327h45.908A4.75275,4.75275,0,0,0,131.62355,105.37517ZM82.0906,96.83427h-18.166a1.5,1.5,0,1,1,0-3h18.166a1.5,1.5,0,0,1,0,3Zm12.5,0h-5.166a1.5,1.5,0,1,1,0-3h5.166a1.5,1.5,0,0,1,0,3Zm0-19.375h-30.666a1.5,1.5,0,1,1,0-3h30.666a1.5,1.5,0,0,1,0,3Z"/><path class="cls-3" d="M107.08156,51.68828v37.75a4.75556,4.75556,0,0,0,4.75,4.75h57.5a4.75556,4.75556,0,0,0,4.75-4.75v-37.75a4.75556,4.75556,0,0,0-4.75-4.75h-57.5A4.7556,4.7556,0,0,0,107.08156,51.68828Zm25.822,5.57592a1.5,1.5,0,0,1,1.5,0l20.785,12a1.49986,1.49986,0,0,1,0,2.59791l-20.785,12a1.5,1.5,0,0,1-2.25-1.299v-24A1.50026,1.50026,0,0,1,132.90358,57.2642Z"/><polygon class="cls-3" points="135.154 61.161 135.154 79.965 151.439 70.563 135.154 61.161"/><path class="cls-3" d="M188.6216,113.5612a6.7509,6.7509,0,0,0-6.009,3.66,1.50066,1.50066,0,0,1-1.331.81005h-.002a1.49929,1.49929,0,0,1-1.332-.813,6.74813,6.74813,0,0,0-12.746,3.04394l.084,1.197c.903,7.369,10.145,13.697,14.005,16.037,3.856-2.343,13.095-8.679,13.991-16.046l.09-1.192A6.75905,6.75905,0,0,0,188.6216,113.5612Z"/><path class="cls-3" d="M184.79958,178.62517a12.18645,12.18645,0,0,0-18.643-10.359c.468-.043.939-.072,1.418-.072a15.0981,15.0981,0,0,1,15.037,17.3861A12.12477,12.12477,0,0,0,184.79958,178.62517Z"/><path class="cls-3" d="M179.78658,183.40617a12.211,12.211,0,1,0-12.211,12.21106A12.2251,12.2251,0,0,0,179.78658,183.40617Zm-12.211-8.677a1.50055,1.50055,0,0,1,1.5,1.5v5.677h5.677a1.5,1.5,0,0,1,0,3h-5.677v5.677a1.5,1.5,0,0,1-3,0v-5.677h-5.678a1.5,1.5,0,0,1,0-3h5.678v-5.677A1.50055,1.50055,0,0,1,167.57558,174.72917Z"/><path class="cls-4" d="M184.32857,10.78728m-2.69,5.68786"/><path class="cls-5" d="M37.69356,128.24321a4.3,4.3,0,1,0,4.3-4.3A4.305,4.305,0,0,0,37.69356,128.24321Zm5.599,0a1.3,1.3,0,1,1-1.3-1.3A1.30127,1.30127,0,0,1,43.29256,128.24321Z"/><path class="cls-6" d="M38.52456,19.38518a4.30005,4.30005,0,1,0-4.3-4.3A4.30469,4.30469,0,0,0,38.52456,19.38518Z"/><path class="cls-7" d="M114.67458,141.89519V120.37614a1.50071,1.50071,0,0,0-2.082-1.38305l-48.972,20.633h-17.446a14.75,14.75,0,1,0,0,29.5h3.25v14a8,8,0,0,0,16,0v-13.24l47.168,19.87305a1.5007,1.5007,0,0,0,2.082-1.38306V166.8582a12.57014,12.57014,0,0,0,0-24.963Zm-52.25,41.23108a5,5,0,0,1-10,0v-14h10Zm3-41.004,33.729-14.21106v29.882a1.5,1.5,0,0,0,3,0v-31.146l9.521-4.011v63.48l-46.25-19.486Zm-3,.504v23.5h-16.25a11.75,11.75,0,1,1,0-23.5Zm52.25,2.29992a9.56673,9.56673,0,0,1,0,18.901Z"/><path class="cls-8" d="M100.65456,166.12627a1.50054,1.50054,0,0,0-1.5,1.5v4.334a1.5,1.5,0,1,0,3,0v-4.334A1.49992,1.49992,0,0,0,100.65456,166.12627Z"/><path class="cls-9" d="M136.5906,155.87627h16.5a1.5,1.5,0,0,0,0-3h-16.5a1.5,1.5,0,0,0,0,3Z"/><path class="cls-10" d="M142.48555,129.30022a1.49908,1.49908,0,0,0-2.121,0l-8.3,8.3a1.5001,1.5001,0,0,0,2.12195,2.121l8.3-8.3A1.50008,1.50008,0,0,0,142.48555,129.30022Z"/><path class="cls-11" d="M134.18557,169.03117a1.49976,1.49976,0,0,0-2.121,2.121l8.3,8.3a1.5001,1.5001,0,0,0,2.12195-2.121Z"/><path class="cls-12" d="M134.62355,105.37627v-8.188h34.708a7.75927,7.75927,0,0,0,7.75-7.75v-37.75a7.75927,7.75927,0,0,0-7.75-7.75h-57.5a7.75927,7.75927,0,0,0-7.75,7.75v5.938h-47.907a7.75927,7.75927,0,0,0-7.75,7.75v40a7.75928,7.75928,0,0,0,7.75,7.75h8.583v12.525a1.50048,1.50048,0,0,0,2.561,1.061l13.586-13.586h45.97A7.75839,7.75839,0,0,0,134.62355,105.37627Zm-53.65795,4.75a1.496,1.496,0,0,0-1.631.327l-11.577,11.577v-10.404a1.5031,1.5031,0,0,0-1.503-1.5h-10.08a4.75556,4.75556,0,0,1-4.75-4.75v-40a4.75556,4.75556,0,0,1,4.75-4.75h47.907v28.813a7.75927,7.75927,0,0,0,7.75,7.75h19.792v8.188a4.75556,4.75556,0,0,1-4.75,4.75H80.9656Zm93.116-58.438v37.75a4.75556,4.75556,0,0,1-4.75,4.75h-57.5a4.75556,4.75556,0,0,1-4.75-4.75v-37.75a4.75556,4.75556,0,0,1,4.75-4.75h57.5A4.75493,4.75493,0,0,1,174.08156,51.68828Z"/><path class="cls-13" d="M94.5906,74.46025h-30.666a1.5,1.5,0,1,0,0,3h30.666a1.5,1.5,0,0,0,0-3Z"/><path class="cls-14" d="M82.0906,93.83525h-18.166a1.5,1.5,0,1,0,0,3h18.166a1.5,1.5,0,0,0,0-3Z"/><path class="cls-14" d="M94.5906,93.83525h-5.166a1.5,1.5,0,0,0,0,3h5.166a1.5,1.5,0,0,0,0-3Z"/><path class="cls-15" d="M132.15358,82.56328a1.49988,1.49988,0,0,0,2.25,1.29895l20.785-12a1.49985,1.49985,0,0,0,0-2.5979l-20.785-12a1.5,1.5,0,0,0-2.25,1.29895Zm3-21.4021,16.285,9.402-16.285,9.402Z"/><path class="cls-16" d="M188.6216,110.5612a9.72834,9.72834,0,0,0-7.337,3.321,9.752,9.752,0,0,0-17.083,6.429l.004.104.09,1.29.007.072c1.106,9.303,12.707,16.71106,16.236,18.76a1.5,1.5,0,0,0,1.507,0c3.519-2.047,15.085-9.44605,16.222-18.792l.101-1.31994.004-.114A9.76305,9.76305,0,0,0,188.6216,110.5612Zm6.66,10.889c-.896,7.36694-10.135,13.703-13.991,16.046-3.86-2.34-13.102-8.668-14.005-16.037l-.084-1.197a6.74813,6.74813,0,0,1,12.746-3.04394,1.49873,1.49873,0,0,0,1.332.813h.002a1.50042,1.50042,0,0,0,1.331-.81005,6.755,6.755,0,0,1,12.759,3.036Z"/><path class="cls-17" d="M172.58956,163.41618a15.20334,15.20334,0,0,0-12.725,6.9,15.19833,15.19833,0,1,0,20.436,21.39807,15.19576,15.19576,0,0,0-7.71106-28.2981Zm-5.014,32.20105a12.21106,12.21106,0,1,1,12.211-12.21106A12.2251,12.2251,0,0,1,167.57558,195.61723Zm0-27.422c-.479,0-.95.028-1.418.072a12.19234,12.19234,0,0,1,16.455,17.31506,15.099,15.099,0,0,0-15.037-17.38709Z"/><path class="cls-18" d="M160.3976,181.90617a1.5,1.5,0,0,0,0,3h5.678v5.677a1.5,1.5,0,0,0,3,0v-5.677h5.677a1.5,1.5,0,0,0,0-3h-5.677v-5.677a1.5,1.5,0,0,0-3,0v5.677Z"/></svg>