<svg id="Carribbean_Sunset" data-name="Carribbean Sunset" xmlns="http://www.w3.org/2000/svg" xmlns:xlink="http://www.w3.org/1999/xlink" width="128" height="128" viewBox="0 0 225.97197 185.36763"><defs><style>.cls-1{fill:#fff;}.cls-2{fill:url(#linear-gradient);}.cls-3{fill:url(#linear-gradient-4);}.cls-4{fill:url(#linear-gradient-5);}</style><linearGradient id="linear-gradient" x1="13.431" y1="43.94537" x2="211.78438" y2="43.94537" gradientUnits="userSpaceOnUse"><stop offset="0" stop-color="#e30058"/><stop offset="1" stop-color="#FFC100"/></linearGradient><linearGradient id="linear-gradient-4" x1="13.431" y1="86.02887" x2="211.78438" y2="86.02887" xlink:href="#linear-gradient"/><linearGradient id="linear-gradient-5" x1="13.431" y1="101.46099" x2="211.78438" y2="101.46099" xlink:href="#linear-gradient"/></defs><path class="cls-1" d="M44.714,44.8316a.88623.88623,0,1,0-.88624-.88574A.887.887,0,0,0,44.714,44.8316Z"/><rect class="cls-1" x="57.12855" y="123.58648" width="15.55908" height="13.76074"/><path class="cls-1" d="M34.15052,43.39312v8.001H183.15931v-8.001a6.63839,6.63839,0,0,0-6.63086-6.63086H40.78089A6.63829,6.63829,0,0,0,34.15052,43.39312Zm30.97851-3.334a3.88623,3.88623,0,1,1-3.88623,3.88672A3.89048,3.89048,0,0,1,65.129,40.05914Zm-10.20752,0a3.88623,3.88623,0,1,1-3.88623,3.88672A3.89049,3.89049,0,0,1,54.92151,40.05914Zm-10.20751,0a3.88623,3.88623,0,1,1-3.88624,3.88672A3.89049,3.89049,0,0,1,44.714,40.05914Z"/><path class="cls-1" d="M65.129,44.8316a.88623.88623,0,1,0-.88623-.88574A.887.887,0,0,0,65.129,44.8316Z"/><path class="cls-1" d="M132.51673,140.34723H47.86243a1.50008,1.50008,0,0,1-1.5-1.5V64.55328a1.5,1.5,0,0,1,3,0v72.794h4.76612V122.08648a1.50007,1.50007,0,0,1,1.5-1.5H74.18763a1.50008,1.50008,0,0,1,1.5,1.5v15.26075H83.2931V103.31891a1.50007,1.50007,0,0,1,1.5-1.5h18.55908a1.50007,1.50007,0,0,1,1.5,1.5v34.02832h7.60547V110.21246a1.50007,1.50007,0,0,1,1.5-1.5h18.55908a1.50007,1.50007,0,0,1,1.5,1.5v27.13477h2.49707a35.7538,35.7538,0,0,1-.19434-3.71,35.28625,35.28625,0,0,1,5.30225-18.63818V86.02887a1.50007,1.50007,0,0,1,1.5-1.5h18.55957a1.50007,1.50007,0,0,1,1.5,1.5V99.19665a35.47282,35.47282,0,0,1,8.66016-1.07208,1.50007,1.50007,0,0,1,1.5,1.5v32.51269h9.81787v-3.3496h-4.96826a1.50007,1.50007,0,0,1-1.5-1.5V93.274a1.50007,1.50007,0,0,1,1.5-1.5,35.65148,35.65148,0,0,1,4.96826.35468V54.3941H34.15052v87.98145a6.63829,6.63829,0,0,0,6.63037,6.63086h99.03882a35.23868,35.23868,0,0,1-2.85608-8.65918ZM64.90833,99.1109a4.89763,4.89763,0,0,1,3.13031,1.14892l21.27588-13.6914a4.88306,4.88306,0,0,1-.18842-1.27784,4.93414,4.93414,0,0,1,9.8545-.3814l20.03369,4.73529a4.89616,4.89616,0,0,1,6.88513-1.61646l21.92175-18.17853A4.98217,4.98217,0,1,1,149.739,72.1557L127.81733,90.33422a4.93373,4.93373,0,1,1-9.48859,2.23133L98.29505,87.83007a4.88123,4.88123,0,0,1-7.35272,1.25849L69.6662,102.78027a4.88345,4.88345,0,0,1,.18842,1.27789,4.94654,4.94654,0,1,1-4.94629-4.94726Z"/><path class="cls-1" d="M54.92151,44.8316a.88623.88623,0,1,0-.88623-.88574A.887.887,0,0,0,54.92151,44.8316Z"/><rect class="cls-1" x="115.45765" y="111.71246" width="15.55908" height="25.63477"/><path class="cls-1" d="M160.18128,100.09961V87.52887H144.62171v23.32348A35.64386,35.64386,0,0,1,160.18128,100.09961Z"/><rect class="cls-1" x="86.2931" y="104.81891" width="15.55908" height="32.52832"/><path class="cls-1" d="M64.90833,106.00445a1.94678,1.94678,0,1,0-1.94678-1.94629A1.94842,1.94842,0,0,0,64.90833,106.00445Z"/><path class="cls-1" d="M94.07239,87.23687a1.94678,1.94678,0,1,0-1.94629-1.94629A1.94883,1.94883,0,0,0,94.07239,87.23687Z"/><path class="cls-1" d="M123.23694,94.13043a1.94678,1.94678,0,1,0-1.94677-1.94629A1.94884,1.94884,0,0,0,123.23694,94.13043Z"/><path class="cls-1" d="M152.4015,69.94683a1.94678,1.94678,0,1,0-1.94678-1.94726A1.94967,1.94967,0,0,0,152.4015,69.94683Z"/><path class="cls-1" d="M170.61933,134.50219c-.02075-.02923-.03815-.06024-.05682-.09094a1.49436,1.49436,0,0,1-.08857-.16327c-.01434-.032-.02478-.06561-.03692-.09881a1.49074,1.49074,0,0,1-.05506-.17737c-.00811-.03577-.0122-.07251-.01782-.10919a1.5021,1.5021,0,0,1-.01831-.182c-.00043-.01477-.00439-.0285-.00439-.04334V101.15875a32.51716,32.51716,0,1,0,20.196,59.069l-19.88257-25.66858C170.64088,134.54107,170.63239,134.52069,170.61933,134.50219Z"/><path class="cls-1" d="M192.90766,158.38739a32.46423,32.46423,0,0,0,11.42157-23.25013H174.89838Z"/><path class="cls-1" d="M179.69105,94.80816v30.9795h30.98779A32.56031,32.56031,0,0,0,179.69105,94.80816Z"/><path class="cls-2" d="M44.714,40.05914a3.88623,3.88623,0,1,0,3.88623,3.88672A3.89049,3.89049,0,0,0,44.714,40.05914Zm0,4.77246a.88623.88623,0,1,1,.88623-.88574A.887.887,0,0,1,44.714,44.8316Z"/><path class="cls-2" d="M54.92151,40.05914a3.88623,3.88623,0,1,0,3.88624,3.88672A3.89049,3.89049,0,0,0,54.92151,40.05914Zm0,4.77246a.88623.88623,0,1,1,.88624-.88574A.887.887,0,0,1,54.92151,44.8316Z"/><path class="cls-2" d="M65.129,40.05914a3.88623,3.88623,0,1,0,3.88623,3.88672A3.89049,3.89049,0,0,0,65.129,40.05914Zm0,4.77246a.88623.88623,0,1,1,.88623-.88574A.887.887,0,0,1,65.129,44.8316Z"/><path class="cls-3" d="M152.4015,63.05328a4.93106,4.93106,0,0,0-4.58057,6.7959L125.89954,88.02789a4.89676,4.89676,0,0,0-6.88525,1.61621L98.9806,84.90875a4.93416,4.93416,0,0,0-9.8545.38183,4.87575,4.87575,0,0,0,.18848,1.27833L68.0387,100.26031a4.89633,4.89633,0,0,0-3.13037-1.14941,4.94678,4.94678,0,1,0,4.94629,4.94726,4.87574,4.87574,0,0,0-.18848-1.27832l21.27637-13.6914a4.88063,4.88063,0,0,0,7.35254-1.25879L118.32874,92.566a4.9343,4.9343,0,1,0,9.48877-2.23145L149.7389,72.15582a4.94207,4.94207,0,1,0,2.6626-9.10254ZM64.90833,106.00445a1.94678,1.94678,0,1,1,1.94629-1.94629A1.94884,1.94884,0,0,1,64.90833,106.00445ZM94.07239,87.23687a1.94678,1.94678,0,1,1,1.94678-1.94629A1.94842,1.94842,0,0,1,94.07239,87.23687Zm29.16455,6.89356a1.94678,1.94678,0,1,1,1.94678-1.94629A1.94884,1.94884,0,0,1,123.23694,94.13043Zm29.16456-24.1836a1.94678,1.94678,0,1,1,1.94677-1.94726A1.94967,1.94967,0,0,1,152.4015,69.94683Z"/><path class="cls-4" d="M186.15931,92.68609v-49.293a9.64168,9.64168,0,0,0-9.63086-9.63086H40.78089a9.64157,9.64157,0,0,0-9.63037,9.63086v98.98243a9.64157,9.64157,0,0,0,9.63037,9.63086H141.44837a35.4683,35.4683,0,0,0,52.064,9.748l.0747-.04.11524-.10937a35.47078,35.47078,0,0,0,13.66113-27.96778,1.50008,1.50008,0,0,0-1.5-1.5h-19.7041v-3.3496H212.213a1.50008,1.50008,0,0,0,1.5-1.5A35.56987,35.56987,0,0,0,186.15931,92.68609ZM34.15052,43.39312a6.63829,6.63829,0,0,1,6.63037-6.63086H176.52845a6.63839,6.63839,0,0,1,6.63086,6.63086v8.001H34.15052ZM171.84144,166.15973a32.5177,32.5177,0,0,1-1.5-65.001v32.47851l.00439.043.01807.18262.01806.10938.05518.17675.03662.09864.08887.16406.05664.09082.03564.05664,19.88282,25.66894A32.33844,32.33844,0,0,1,171.84144,166.15973Zm-11.66016-66.06055a35.642,35.642,0,0,0-15.55957,10.75293V87.52887h15.55957Zm44.148,35.03808a32.46488,32.46488,0,0,1-11.42139,23.25l-18.00927-23.25Zm-21.16992-3h-9.81787V99.62457a1.50007,1.50007,0,0,0-1.5-1.5,35.47287,35.47287,0,0,0-8.66016,1.07226v-13.168a1.50007,1.50007,0,0,0-1.5-1.5H143.12171a1.50007,1.50007,0,0,0-1.5,1.5v28.96972a35.28807,35.28807,0,0,0-5.30225,18.63867,35.68571,35.68571,0,0,0,.19434,3.71h-2.49707V110.21246a1.50007,1.50007,0,0,0-1.5-1.5H113.95765a1.50007,1.50007,0,0,0-1.5,1.5v27.13477h-7.60547V103.31891a1.50007,1.50007,0,0,0-1.5-1.5H84.7931a1.50007,1.50007,0,0,0-1.5,1.5v34.02832H75.68763V122.08648a1.50008,1.50008,0,0,0-1.5-1.5H55.62855a1.50007,1.50007,0,0,0-1.5,1.5v15.26075H49.36243V64.55328a1.5,1.5,0,0,0-3,0v74.294a1.50008,1.50008,0,0,0,1.5,1.5h89.10108a35.24082,35.24082,0,0,0,2.85644,8.65918H40.78089a6.63829,6.63829,0,0,1-6.63037-6.63086V54.3941H183.15931V92.12848a35.63312,35.63312,0,0,0-4.96826-.3545,1.50007,1.50007,0,0,0-1.5,1.5v34.01368a1.50007,1.50007,0,0,0,1.5,1.5h4.96826Zm-52.14258,5.21H115.45765V111.71246h15.55908Zm-29.16455,0H86.2931V104.81891h15.55908Zm-29.16455,0H57.12855V123.58648H72.68763Zm107.00342-11.55957V94.80816a32.56031,32.56031,0,0,1,30.98779,30.9795Z"/></svg>