<svg xmlns="http://www.w3.org/2000/svg" xmlns:xlink="http://www.w3.org/1999/xlink" width="128" height="128" viewBox="0 0 128 128">
  <defs>
    <linearGradient id="a" x1="104.673" y1="103.805" x2="25.061" y2="24.194" gradientUnits="userSpaceOnUse">
      <stop offset="0" stop-color="#e30058"/>
      <stop offset="1" stop-color="#ffc100"/>
    </linearGradient>
  </defs>
  <title>MECHANICAL ARM</title>
  <path d="M103.436,23.681H55.617a1.75,1.75,0,0,0,0,3.5h46.069V29.75H28.049V27.181H41.971a1.75,1.75,0,0,0,0-3.5H26.3a1.749,1.749,0,0,0-1.75,1.75V31.5a1.75,1.75,0,0,0,1.75,1.75H59.117v7.14a8.745,8.745,0,1,0,14.324,8.329h7.8l3.81,11.2H44.688l3.809-11.2h3.537a1.75,1.75,0,0,0,0-3.5h-4.79a1.751,1.751,0,0,0-1.657,1.187l-5,14.7a1.741,1.741,0,0,0,1.59,2.3l-1.26,2.063a4.731,4.731,0,0,0,.723,5.862l7.751,7.625a4.749,4.749,0,1,0,6.661-6.772L50.99,67.205l2.284-3.741a.508.508,0,0,0,.023-.047H83.462L85.831,67.3a1.246,1.246,0,0,1-.191,1.543l-7.749,7.624a1.282,1.282,0,0,1-1.768-.013,1.251,1.251,0,0,1,.015-1.769l6.052-5.955a1.75,1.75,0,0,0-2.456-2.494l-6.051,5.954a4.75,4.75,0,1,0,6.662,6.773l7.75-7.625a4.73,4.73,0,0,0,.722-5.862l-1.26-2.063a1.742,1.742,0,0,0,1.591-2.3l-5-14.7a1.753,1.753,0,0,0-1.658-1.187H73.441a8.742,8.742,0,0,0-2.824-4.829V37.333a1.75,1.75,0,0,0-3.5,0v1.19a8.478,8.478,0,0,0-4.5,0V33.25h40.819a1.751,1.751,0,0,0,1.75-1.75V25.431A1.75,1.75,0,0,0,103.436,23.681ZM47.545,68.725,53.6,74.681a1.248,1.248,0,0,1,.014,1.768,1.281,1.281,0,0,1-1.766.014L44.1,68.838A1.247,1.247,0,0,1,43.9,67.3l2.37-3.878H49.2l-1.924,3.149A1.75,1.75,0,0,0,47.545,68.725ZM70.117,46.969a5.25,5.25,0,1,1-5.25-5.25A5.256,5.256,0,0,1,70.117,46.969ZM47.1,25.431a1.749,1.749,0,0,1,1.75-1.75h.834a1.75,1.75,0,0,1,0,3.5h-.834A1.749,1.749,0,0,1,47.1,25.431Zm56.339,63.183H97.314v-8.32a1.751,1.751,0,0,0-1.75-1.75H85.5a1.75,1.75,0,0,0-1.75,1.75v8.32H71.651v-8.32a1.75,1.75,0,0,0-1.75-1.75H59.833a1.75,1.75,0,0,0-1.75,1.75V85.33a1.75,1.75,0,1,0,3.5,0V82.044h6.568v6.57H45.989v-8.32a1.75,1.75,0,0,0-1.75-1.75H34.171a1.75,1.75,0,0,0-1.75,1.75v8.32H26.3a1.749,1.749,0,0,0-1.75,1.75v12.2a1.749,1.749,0,0,0,1.75,1.75H71.284a1.75,1.75,0,0,0,0-3.5H28.049v-8.7h73.637v8.7H85.494a1.75,1.75,0,0,0,0,3.5h17.942a1.75,1.75,0,0,0,1.75-1.75v-12.2A1.75,1.75,0,0,0,103.436,88.614Zm-16.191-6.57h6.569v6.57H87.245Zm-51.324,0h6.568v6.57H35.921Zm44.821,20.524a1.749,1.749,0,0,1-1.75,1.75H78.2a1.75,1.75,0,0,1,0-3.5h.792A1.749,1.749,0,0,1,80.742,102.568Z" fill="url(#a)"/>
</svg>
