<svg id="ART" xmlns="http://www.w3.org/2000/svg" xmlns:xlink="http://www.w3.org/1999/xlink" viewBox="0 0 48 48"><defs><style>.cls-1{fill:url(#linear-gradient);}.cls-2{fill:url(#linear-gradient-2);}.cls-3{fill:url(#linear-gradient-3);}.cls-4{fill:url(#linear-gradient-4);}.cls-5{fill:url(#linear-gradient-5);}.cls-6{fill:url(#linear-gradient-6);}</style><linearGradient id="linear-gradient" x1="24" y1="72.5" x2="24" y2="-27.95" gradientUnits="userSpaceOnUse"><stop offset="0" stop-color="#f3c57a"/><stop offset="0.49" stop-color="#f39369"/><stop offset="1" stop-color="#e94867"/></linearGradient><linearGradient id="linear-gradient-2" x1="28.08" y1="74.17" x2="28.08" y2="-6.93" xlink:href="#linear-gradient"/><linearGradient id="linear-gradient-3" x1="44.05" y1="51.13" x2="36.42" y2="11.38" xlink:href="#linear-gradient"/><linearGradient id="linear-gradient-4" x1="33.56" y1="14.44" x2="46.58" y2="1.42" gradientUnits="userSpaceOnUse"><stop offset="0" stop-color="#fff"/><stop offset="0.52" stop-color="#cce2e6"/><stop offset="1" stop-color="#8fa1bb"/></linearGradient><linearGradient id="linear-gradient-5" x1="23.3" y1="49.91" x2="24.3" y2="12.91" xlink:href="#linear-gradient"/><linearGradient id="linear-gradient-6" x1="-21.34" y1="35.91" x2="34.16" y2="22.57" xlink:href="#linear-gradient"/></defs><title>label, tag, tab, save, bookmark</title><path class="cls-1" d="M23.34,4.38l-19,19a4.77,4.77,0,0,0,0,6.75L17.91,43.62a4.77,4.77,0,0,0,6.75,0l19-19A4.77,4.77,0,0,0,45,21.15L44.64,8A4.77,4.77,0,0,0,40,3.36L26.85,3A4.77,4.77,0,0,0,23.34,4.38Z"/><path class="cls-2" d="M40,3.36,28.5,3v8.87a18.36,18.36,0,0,1-5.38,13l-12,12,6.77,6.77a4.77,4.77,0,0,0,6.75,0l19-19A4.77,4.77,0,0,0,45,21.15L44.64,8A4.77,4.77,0,0,0,40,3.36Z"/><polygon class="cls-3" points="35.99 32.3 40.51 27.78 40.51 9.5 35.99 9.5 35.99 32.3"/><circle class="cls-4" cx="38.25" cy="9.75" r="2.27"/><circle class="cls-5" cx="24" cy="24" r="7.5"/><path class="cls-6" d="M23.12,24.88,18.7,29.3a7.5,7.5,0,1,0,8.94-11.86A18.35,18.35,0,0,1,23.12,24.88Z"/></svg>