<svg id="ART" xmlns="http://www.w3.org/2000/svg" xmlns:xlink="http://www.w3.org/1999/xlink" viewBox="0 0 48 48"><defs><style>.cls-1{fill:url(#linear-gradient);}.cls-2{fill:url(#linear-gradient-2);}.cls-3{fill:url(#linear-gradient-3);}.cls-4{fill:url(#linear-gradient-4);}.cls-5{fill:url(#linear-gradient-5);}.cls-6{fill:url(#linear-gradient-6);}.cls-7{fill:url(#linear-gradient-7);}.cls-8{fill:url(#linear-gradient-8);}</style><linearGradient id="linear-gradient" x1="24" y1="55.33" x2="24" y2="-7.99" gradientUnits="userSpaceOnUse"><stop offset="0" stop-color="#f3c57a"/><stop offset="0.49" stop-color="#f39369"/><stop offset="1" stop-color="#e94867"/></linearGradient><linearGradient id="linear-gradient-2" x1="31.71" y1="58.75" x2="31.71" y2="20.3" xlink:href="#linear-gradient"/><linearGradient id="linear-gradient-3" x1="24" y1="32.37" x2="24" y2="-20.79" gradientUnits="userSpaceOnUse"><stop offset="0" stop-color="#273a9b"/><stop offset="0.56" stop-color="#202f65"/><stop offset="1" stop-color="#021e2f"/></linearGradient><linearGradient id="linear-gradient-4" x1="24" y1="11.17" x2="24" y2="39.95" xlink:href="#linear-gradient-3"/><linearGradient id="linear-gradient-5" x1="24" y1="38" x2="24" y2="-26.04" gradientUnits="userSpaceOnUse"><stop offset="0" stop-color="#fff"/><stop offset="0.41" stop-color="#cce2e6"/><stop offset="1" stop-color="#8fa1bb"/></linearGradient><linearGradient id="linear-gradient-6" y1="19.25" x2="24" y2="60.2" xlink:href="#linear-gradient-5"/><linearGradient id="linear-gradient-7" x1="11.25" y1="47.44" x2="11.25" y2="32.73" xlink:href="#linear-gradient"/><linearGradient id="linear-gradient-8" x1="24.88" y1="40.83" x2="24.88" y2="12.59" gradientUnits="userSpaceOnUse"><stop offset="0" stop-color="#27e9de"/><stop offset="0.52" stop-color="#03a4ec"/><stop offset="1" stop-color="#2547a8"/></linearGradient></defs><title>video, content, mail, message, letter</title><path class="cls-1" d="M27.14,5.24a5.4,5.4,0,0,0-6.28,0L5.1,16.5A5,5,0,0,0,3,20.58V39.37A5.63,5.63,0,0,0,8.63,45H39.37A5.63,5.63,0,0,0,45,39.37V20.58a5,5,0,0,0-2.1-4.08Z"/><path class="cls-2" d="M36.25,16.25,20.49,27.51a5,5,0,0,0-2.07,3.62,5,5,0,0,0,2.07,3.62l10.68,7.63A14.1,14.1,0,0,0,39.37,45h0A5.63,5.63,0,0,0,45,39.37V20.58a5,5,0,0,0-1.94-3.95l-.54-.38A5.4,5.4,0,0,0,36.25,16.25Z"/><path class="cls-3" d="M45,20.12A5,5,0,0,0,42.9,16.5L27.14,5.24a5.4,5.4,0,0,0-6.28,0L5.1,16.5A5,5,0,0,0,3,20.12,5,5,0,0,0,5.1,23.74L20.86,35a5.4,5.4,0,0,0,6.28,0L42.9,23.74A5,5,0,0,0,45,20.12Z"/><path class="cls-4" d="M42.9,20.74,27.14,32a5.4,5.4,0,0,1-6.28,0L5.1,20.74a5,5,0,0,1-1.69-2.12A5,5,0,0,0,3,20.12,5,5,0,0,0,5.1,23.74L20.86,35a5.4,5.4,0,0,0,6.28,0L42.9,23.74A5,5,0,0,0,45,20.12a5,5,0,0,0-.38-1.5A5,5,0,0,1,42.9,20.74Z"/><path class="cls-5" d="M33.82,16.5H14.18A2.18,2.18,0,0,0,12,18.68v10L20.86,35a5.4,5.4,0,0,0,6.28,0L36,28.67v-10A2.18,2.18,0,0,0,33.82,16.5Z"/><path class="cls-6" d="M36,25.67,27.14,32a5.4,5.4,0,0,1-6.28,0L12,25.67v3L20.86,35a5.4,5.4,0,0,0,6.28,0L36,28.67Z"/><circle class="cls-7" cx="11.25" cy="36.75" r="2.25"/><path class="cls-8" d="M21,23.13v6.25a1.45,1.45,0,0,0,2.23,1.22l4.87-3.12a1.45,1.45,0,0,0,0-2.44l-4.87-3.12A1.45,1.45,0,0,0,21,23.13Z"/></svg>