<svg id="ART" xmlns="http://www.w3.org/2000/svg" xmlns:xlink="http://www.w3.org/1999/xlink" viewBox="0 0 48 48"><defs><style>.cls-1{fill:url(#linear-gradient);}.cls-2{fill:url(#linear-gradient-2);}.cls-3{fill:url(#linear-gradient-3);}.cls-4{fill:url(#linear-gradient-4);}.cls-5{fill:url(#linear-gradient-5);}.cls-6{fill:url(#linear-gradient-6);}.cls-7{fill:url(#linear-gradient-7);}.cls-8{fill:url(#linear-gradient-8);}.cls-9{fill:url(#linear-gradient-9);}.cls-10{fill:url(#linear-gradient-10);}.cls-11{fill:url(#linear-gradient-11);}</style><linearGradient id="linear-gradient" x1="24" y1="-23.5" x2="24" y2="71.08" gradientUnits="userSpaceOnUse"><stop offset="0" stop-color="#f3c57a"/><stop offset="0.49" stop-color="#f39369"/><stop offset="1" stop-color="#e94867"/></linearGradient><linearGradient id="linear-gradient-2" x1="24" y1="54.83" x2="24" y2="-63.37" gradientUnits="userSpaceOnUse"><stop offset="0" stop-color="#273a9b"/><stop offset="0.56" stop-color="#202f65"/><stop offset="1" stop-color="#021e2f"/></linearGradient><linearGradient id="linear-gradient-3" y1="24" x2="24" y2="4.66" xlink:href="#linear-gradient"/><linearGradient id="linear-gradient-4" x1="8.31" y1="12.81" x2="8.31" y2="-5.26" xlink:href="#linear-gradient"/><linearGradient id="linear-gradient-5" x1="12" y1="12.81" x2="12" y2="-5.26" gradientUnits="userSpaceOnUse"><stop offset="0" stop-color="#27e9de"/><stop offset="0.52" stop-color="#03a4ec"/><stop offset="1" stop-color="#2547a8"/></linearGradient><linearGradient id="linear-gradient-6" x1="15.69" y1="12.81" x2="15.69" y2="-5.26" gradientUnits="userSpaceOnUse"><stop offset="0" stop-color="#fff"/><stop offset="0.52" stop-color="#cce2e6"/><stop offset="1" stop-color="#8fa1bb"/></linearGradient><linearGradient id="linear-gradient-7" x1="23.58" y1="21.38" x2="23.58" y2="-7.25" gradientTransform="matrix(0.89, 0.45, -0.49, 0.97, 16.44, -10.37)" xlink:href="#linear-gradient-6"/><linearGradient id="linear-gradient-8" x1="13.63" y1="71.5" x2="13.63" y2="29.74" xlink:href="#linear-gradient"/><linearGradient id="linear-gradient-9" x1="26.76" y1="71.5" x2="26.76" y2="29.74" gradientTransform="matrix(-1, 0, 0, 1, 61.26, 0)" xlink:href="#linear-gradient"/><linearGradient id="linear-gradient-10" x1="13.63" y1="20.88" x2="13.63" y2="-7.75" xlink:href="#linear-gradient-6"/><linearGradient id="linear-gradient-11" x1="34.37" y1="20.88" x2="34.37" y2="-7.75" xlink:href="#linear-gradient-6"/></defs><title>code, coding, programming, web, website, browser</title><rect class="cls-1" x="3" y="4.5" width="42" height="39" rx="3.07" ry="3.07"/><path class="cls-2" d="M41.93,4.5H6.07A3.07,3.07,0,0,0,3,7.57V10.5H45V7.57A3.07,3.07,0,0,0,41.93,4.5Z"/><rect class="cls-3" x="3" y="10.5" width="42" height="3"/><circle class="cls-4" cx="8.31" cy="7.5" r="0.73"/><circle class="cls-5" cx="12" cy="7.5" r="0.73"/><circle class="cls-6" cx="15.69" cy="7.5" r="0.73"/><path class="cls-7" d="M20.22,34.5h0a.75.75,0,0,1-.33-1l6.89-13.67a.75.75,0,0,1,1-.33h0a.75.75,0,0,1,.33,1L21.22,34.17A.75.75,0,0,1,20.22,34.5Z"/><polygon class="cls-8" points="18.24 43.5 9.02 43.5 9.02 27 18.24 33.22 18.24 43.5"/><polygon class="cls-9" points="29.89 43.5 39.11 43.5 39.11 27 29.89 33.22 29.89 43.5"/><path class="cls-10" d="M16.74,34.72a1.5,1.5,0,0,1-1.06-.44L9.46,28.06a1.5,1.5,0,0,1,0-2.12l6.22-6.22a1.5,1.5,0,0,1,2.12,2.12L12.64,27l5.15,5.15a1.5,1.5,0,0,1-1.06,2.56Z"/><path class="cls-11" d="M31.26,34.72a1.5,1.5,0,0,0,1.06-.44l6.22-6.22a1.5,1.5,0,0,0,0-2.12l-6.22-6.22a1.5,1.5,0,0,0-2.12,2.12L35.36,27,30.2,32.15a1.5,1.5,0,0,0,1.06,2.56Z"/></svg>